<?xml version="1.0" encoding="UTF-8"?>
<svg width="45px" height="46px" viewBox="0 0 45 46" version="1.1" xmlns="http://www.w3.org/2000/svg" xmlns:xlink="http://www.w3.org/1999/xlink">
    <!-- Generator: sketchtool 52.6 (67491) - http://www.bohemiancoding.com/sketch -->
    <title>F5D16E16-9897-4C4B-B8C1-A8BAE8980B5A</title>
    <desc>Created with sketchtool.</desc>
    <g id="Desktop" stroke="none" stroke-width="1" fill="none" fill-rule="evenodd">
        <g id="Index" transform="translate(-895.000000, -682.000000)" fill="#8C9CAA">
            <g id="Statistics" transform="translate(619.000000, 550.000000)">
                <g id="2" transform="translate(276.000000, 129.000000)">
                    <g id="Money-stack" transform="translate(0.000000, 3.000000)">
                        <g id="Group">
                            <path d="M20.25,24 L0.75,24 C0.336,24 0,23.664 0,23.25 L0,20.25 C0,19.836 0.336,19.5 0.75,19.5 L20.25,19.5 C20.664,19.5 21,19.836 21,20.25 L21,23.25 C21,23.664 20.664,24 20.25,24 Z M1.5,22.5 L19.5,22.5 L19.5,21 L1.5,21 L1.5,22.5 Z" id="Shape" fill-rule="nonzero"></path>
                            <path d="M44.25,24 L24.75,24 C24.336,24 24,23.664 24,23.25 L24,20.25 C24,19.836 24.336,19.5 24.75,19.5 L44.25,19.5 C44.664,19.5 45,19.836 45,20.25 L45,23.25 C45,23.664 44.664,24 44.25,24 Z M25.5,22.5 L43.5,22.5 L43.5,21 L25.5,21 L25.5,22.5 Z" id="Shape" fill-rule="nonzero"></path>
                            <path d="M20.25,27.5 L0.75,27.5 C0.336,27.5 0,27.164 0,26.75 L0,23.75 C0,23.336 0.336,23 0.75,23 L20.25,23 C20.664,23 21,23.336 21,23.75 L21,26.75 C21,27.164 20.664,27.5 20.25,27.5 Z M1.5,26 L19.5,26 L19.5,24.5 L1.5,24.5 L1.5,26 Z" id="Shape" fill-rule="nonzero"></path>
                            <path d="M20.25,36.5 L0.75,36.5 C0.336,36.5 0,36.164 0,35.75 L0,32.75 C0,32.336 0.336,32 0.75,32 L20.25,32 C20.664,32 21,32.336 21,32.75 L21,35.75 C21,36.164 20.664,36.5 20.25,36.5 Z M1.5,35 L19.5,35 L19.5,33.5 L1.5,33.5 L1.5,35 Z" id="Shape-Copy" fill-rule="nonzero"></path>
                            <path d="M44.25,27.5 L24.75,27.5 C24.336,27.5 24,27.164 24,26.75 L24,23.75 C24,23.336 24.336,23 24.75,23 L44.25,23 C44.664,23 45,23.336 45,23.75 L45,26.75 C45,27.164 44.664,27.5 44.25,27.5 Z M25.5,26 L43.5,26 L43.5,24.5 L25.5,24.5 L25.5,26 Z" id="Shape" fill-rule="nonzero"></path>
                            <path d="M44.25,36.5 L24.75,36.5 C24.336,36.5 24,36.164 24,35.75 L24,32.75 C24,32.336 24.336,32 24.75,32 L44.25,32 C44.664,32 45,32.336 45,32.75 L45,35.75 C45,36.164 44.664,36.5 44.25,36.5 Z M25.5,35 L43.5,35 L43.5,33.5 L25.5,33.5 L25.5,35 Z" id="Shape-Copy-2" fill-rule="nonzero"></path>
                            <path d="M20.25,30.5 L0.75,30.5 C0.336,30.5 0,30.164 0,29.75 L0,26.75 C0,26.336 0.336,26 0.75,26 L20.25,26 C20.664,26 21,26.336 21,26.75 L21,29.75 C21,30.164 20.664,30.5 20.25,30.5 Z M1.5,29 L19.5,29 L19.5,27.5 L1.5,27.5 L1.5,29 Z" id="Shape" fill-rule="nonzero"></path>
                            <path d="M20.25,39.5 L0.75,39.5 C0.336,39.5 0,39.164 0,38.75 L0,35.75 C0,35.336 0.336,35 0.75,35 L20.25,35 C20.664,35 21,35.336 21,35.75 L21,38.75 C21,39.164 20.664,39.5 20.25,39.5 Z M1.5,38 L19.5,38 L19.5,36.5 L1.5,36.5 L1.5,38 Z" id="Shape-Copy-3" fill-rule="nonzero"></path>
                            <path d="M44.25,30.5 L24.75,30.5 C24.336,30.5 24,30.164 24,29.75 L24,26.75 C24,26.336 24.336,26 24.75,26 L44.25,26 C44.664,26 45,26.336 45,26.75 L45,29.75 C45,30.164 44.664,30.5 44.25,30.5 Z M25.5,29 L43.5,29 L43.5,27.5 L25.5,27.5 L25.5,29 Z" id="Shape" fill-rule="nonzero"></path>
                            <path d="M44.25,39.5 L24.75,39.5 C24.336,39.5 24,39.164 24,38.75 L24,35.75 C24,35.336 24.336,35 24.75,35 L44.25,35 C44.664,35 45,35.336 45,35.75 L45,38.75 C45,39.164 44.664,39.5 44.25,39.5 Z M25.5,38 L43.5,38 L43.5,36.5 L25.5,36.5 L25.5,38 Z" id="Shape-Copy-4" fill-rule="nonzero"></path>
                            <path d="M20.25,33.5 L0.75,33.5 C0.336,33.5 0,33.164 0,32.75 L0,29.75 C0,29.336 0.336,29 0.75,29 L20.25,29 C20.664,29 21,29.336 21,29.75 L21,32.75 C21,33.164 20.664,33.5 20.25,33.5 Z M1.5,32 L19.5,32 L19.5,30.5 L1.5,30.5 L1.5,32 Z" id="Shape" fill-rule="nonzero"></path>
                            <path d="M20.25,42.5 L0.75,42.5 C0.336,42.5 0,42.164 0,41.75 L0,38.75 C0,38.336 0.336,38 0.75,38 L20.25,38 C20.664,38 21,38.336 21,38.75 L21,41.75 C21,42.164 20.664,42.5 20.25,42.5 Z M1.5,41 L19.5,41 L19.5,39.5 L1.5,39.5 L1.5,41 Z" id="Shape-Copy-5" fill-rule="nonzero"></path>
                            <path d="M20.25,45.5 L0.75,45.5 C0.336,45.5 0,45.164 0,44.75 L0,41.75 C0,41.336 0.336,41 0.75,41 L20.25,41 C20.664,41 21,41.336 21,41.75 L21,44.75 C21,45.164 20.664,45.5 20.25,45.5 Z M1.5,44 L19.5,44 L19.5,42.5 L1.5,42.5 L1.5,44 Z" id="Shape-Copy-7" fill-rule="nonzero"></path>
                            <path d="M44.25,33.5 L24.75,33.5 C24.336,33.5 24,33.164 24,32.75 L24,29.75 C24,29.336 24.336,29 24.75,29 L44.25,29 C44.664,29 45,29.336 45,29.75 L45,32.75 C45,33.164 44.664,33.5 44.25,33.5 Z M25.5,32 L43.5,32 L43.5,30.5 L25.5,30.5 L25.5,32 Z" id="Shape" fill-rule="nonzero"></path>
                            <path d="M44.25,42.5 L24.75,42.5 C24.336,42.5 24,42.164 24,41.75 L24,38.75 C24,38.336 24.336,38 24.75,38 L44.25,38 C44.664,38 45,38.336 45,38.75 L45,41.75 C45,42.164 44.664,42.5 44.25,42.5 Z M25.5,41 L43.5,41 L43.5,39.5 L25.5,39.5 L25.5,41 Z" id="Shape-Copy-6" fill-rule="nonzero"></path>
                            <path d="M44.25,45.5 L24.75,45.5 C24.336,45.5 24,45.164 24,44.75 L24,41.75 C24,41.336 24.336,41 24.75,41 L44.25,41 C44.664,41 45,41.336 45,41.75 L45,44.75 C45,45.164 44.664,45.5 44.25,45.5 Z M25.5,44 L43.5,44 L43.5,42.5 L25.5,42.5 L25.5,44 Z" id="Shape-Copy-8" fill-rule="nonzero"></path>
                            <path d="M25.5,45.5 L19.5,45.5 L19.5,0 L25.5,0 L25.5,45.5 Z M21,44 L24,44 L24,1.5 L21,1.5 L21,44 Z" id="Shape" fill-rule="nonzero"></path>
                            <path d="M9.75,13.5 C9.336,13.5 9,13.164 9,12.75 C9,12.336 9.336,12 9.75,12 C10.57725,12 11.25,11.32725 11.25,10.5 C11.25,9.67275 10.57725,9 9.75,9 C8.92275,9 8.25,9.67275 8.25,10.5 C8.25,10.914 7.914,11.25 7.5,11.25 C7.086,11.25 6.75,10.914 6.75,10.5 C6.75,8.8455 8.0955,7.5 9.75,7.5 C11.4045,7.5 12.75,8.8455 12.75,10.5 C12.75,12.1545 11.4045,13.5 9.75,13.5 Z" id="Path"></path>
                            <path d="M35.25,13.5 C33.5955,13.5 32.25,12.1545 32.25,10.5 C32.25,8.8455 33.5955,7.5 35.25,7.5 C36.9045,7.5 38.25,8.8455 38.25,10.5 C38.25,10.914 37.914,11.25 37.5,11.25 C37.086,11.25 36.75,10.914 36.75,10.5 C36.75,9.67275 36.07725,9 35.25,9 C34.42275,9 33.75,9.67275 33.75,10.5 C33.75,11.32725 34.42275,12 35.25,12 C35.664,12 36,12.336 36,12.75 C36,13.164 35.664,13.5 35.25,13.5 Z" id="Path"></path>
                            <g transform="translate(3.000000, 3.000000)" fill-rule="nonzero" id="Shape">
                                <path d="M35.25,15 L21.75,15 C21.336,15 21,14.664 21,14.25 L21,0.75 C21,0.336 21.336,0 21.75,0 L35.25,0 C35.664,0 36,0.336 36,0.75 C36,1.9905 37.0095,3 38.25,3 C38.664,3 39,3.336 39,3.75 L39,11.25 C39,11.664 38.664,12 38.25,12 C37.0095,12 36,13.0095 36,14.25 C36,14.664 35.664,15 35.25,15 Z M22.5,13.5 L34.57575,13.5 C34.87425,12.033 36.033,10.87425 37.5,10.57575 L37.5,4.42425 C36.033,4.12575 34.87425,2.967 34.57575,1.5 L22.5,1.5 L22.5,13.5 Z"></path>
                                <path d="M17.25,15 L3.75,15 C3.336,15 3,14.664 3,14.25 C3,13.0095 1.9905,12 0.75,12 C0.336,12 0,11.664 0,11.25 L0,3.75 C0,3.336 0.336,3 0.75,3 C1.9905,3 3,1.9905 3,0.75 C3,0.336 3.336,0 3.75,0 L17.25,0 C17.664,0 18,0.336 18,0.75 L18,14.25 C18,14.664 17.664,15 17.25,15 Z M4.42425,13.5 L16.5,13.5 L16.5,1.5 L4.42425,1.5 C4.12575,2.967 2.967,4.12575 1.5,4.42425 L1.5,10.575 C2.967,10.87425 4.12575,12.033 4.42425,13.5 Z"></path>
                            </g>
                            <g transform="translate(15.000000, 3.000000)" fill-rule="nonzero" id="Shape">
                                <path d="M6,14.919 L4.9995,14.565 C2.00925,13.506 0,10.66725 0,7.5 C0,4.33275 2.00925,1.494 4.9995,0.435 L6,0.081 L6,14.919 Z M4.5,2.31075 C2.67075,3.369 1.5,5.33925 1.5,7.5 C1.5,9.66075 2.67075,11.631 4.5,12.68925 L4.5,2.31075 Z"></path>
                                <path d="M9,14.919 L9,0.081 L10.0005,0.435 C12.99075,1.494 15,4.33275 15,7.5 C15,10.66725 12.99075,13.506 10.0005,14.565 L9,14.919 Z M10.5,2.31075 L10.5,12.68925 C12.32925,11.631 13.5,9.66075 13.5,7.5 C13.5,5.33925 12.32925,3.369 10.5,2.31075 Z"></path>
                            </g>
                            <g fill-rule="nonzero" id="Shape">
                                <path d="M20.25,21 L0.75,21 C0.336,21 0,20.664 0,20.25 L0,0.75 C0,0.336 0.336,0 0.75,0 L20.25,0 C20.664,0 21,0.336 21,0.75 L21,20.25 C21,20.664 20.664,21 20.25,21 Z M1.5,19.5 L19.5,19.5 L19.5,1.5 L1.5,1.5 L1.5,19.5 Z"></path>
                                <path d="M44.25,21 L24.75,21 C24.336,21 24,20.664 24,20.25 L24,0.75 C24,0.336 24.336,0 24.75,0 L44.25,0 C44.664,0 45,0.336 45,0.75 L45,20.25 C45,20.664 44.664,21 44.25,21 Z M25.5,19.5 L43.5,19.5 L43.5,1.5 L25.5,1.5 L25.5,19.5 Z"></path>
                            </g>
                        </g>
                    </g>
                </g>
            </g>
        </g>
    </g>
</svg>