<?xml version="1.0" encoding="UTF-8"?>
<svg width="30px" height="40px" viewBox="0 0 30 40" version="1.1" xmlns="http://www.w3.org/2000/svg" xmlns:xlink="http://www.w3.org/1999/xlink">
    <!-- Generator: Sketch 53.2 (72643) - https://sketchapp.com -->
    <title>icons/currencys/PSB/active</title>
    <desc>Created with Sketch.</desc>
    <g id="icons/currencys/PSB/active" stroke="none" stroke-width="1" fill="none" fill-rule="evenodd">
        <rect id="Rectangle" fill-opacity="0" fill="#D8D8D8" fill-rule="nonzero" x="0" y="-5" width="30" height="50"></rect>
        <g id="PSB_logo_ru_vert" transform="translate(1.000000, 6.000000)" fill="#FFFFFF">
            <path d="M21.481389,0 L11.2737947,0 C8.30302273,0 5.76892331,2.0025436 5,4.77003089 L17.1301524,4.77003089 C21.4124407,4.77003089 23.2290782,6.76208212 23.2290782,11.4361828 L23.2290782,23 C25.9910067,22.2310592 28,19.6879088 28,16.7280614 L28,6.51775981 C28,2.91787791 25.0811891,0 21.481389,0 Z" id="Fill-75"></path>
            <path d="M6.51761179,28 L16.7257057,28 C19.6969773,28 22.2310767,25.9984557 23,23.2299691 L10.8698476,23.2299691 C6.58805896,23.2299691 4.77092181,21.2379179 4.77092181,16.5638172 L4.77092181,5 C2.00949288,5.76994004 0,8.31309048 0,11.2729379 L0,21.4822402 C0,25.0831214 2.91781164,28 6.51761179,28 Z" id="Fill-76"></path>
            <path d="M19.3632727,11.3465 L19.3632727,11.318 C19.8891636,11.155 20.5912,10.7245 20.5912,9.5935 C20.5912,8.321 19.5384,7.737 18.0569455,7.737 L15.5410182,7.737 L15.5410182,10.782 L14.0605818,10.782 C12.0720727,10.782 11.6622545,12.152 11.6622545,12.898 C11.6622545,13.9595 12.2869091,14.4305 13.4369455,14.994 C14.1379636,15.3375 14.9754182,15.5485 14.9754182,16.3345 C14.9754182,16.748 14.5864727,17.246 13.7485091,17.246 L12.1891636,17.246 C12.4228364,16.8525 12.5195636,16.4215 12.5195636,16.0475 C12.5195636,15.5605 12.3444364,13.606 9.57549091,13.606 L7.31410909,13.606 L7.31410909,21.1405 L8.85461818,21.1405 L8.85461818,17.857 L9.47774545,18.4705 L13.6909818,18.4705 C15.6576,18.4705 16.5943273,17.4755 16.5943273,16.288 C16.5943273,15.867 16.5154182,15.529 16.3794909,15.2535 L17.9592,15.2535 C20.3967273,15.2535 20.9613091,14.066 20.9613091,13.1365 C20.9613091,12.19 20.3376727,11.49 19.3632727,11.3465 Z M9.57549091,17.246 L8.85461818,17.246 L8.85461818,14.783 L9.57549091,14.783 C10.472,14.783 10.8818182,15.318 10.8818182,15.9695 C10.8818182,16.575 10.5117091,17.246 9.57549091,17.246 Z M15.5410182,12.573 L15.5410182,14.4 C15.1704,14.1815 14.7427636,14.0085 14.2952727,13.817 C13.8070545,13.606 13.2811636,13.3375 13.2811636,12.733 C13.2811636,12.4265 13.4761455,11.9695 14.4118545,11.9695 L16.1458182,11.9695 L15.5410182,12.573 Z M17.0815273,8.916 L17.7835636,8.916 C18.9728,8.916 19.0313455,9.6325 19.0313455,9.8525 C19.0313455,10.1775 18.8562182,10.782 17.8421091,10.782 L17.0815273,10.782 L17.0815273,8.916 Z M17.9592,14.066 L17.0815273,14.066 L17.0815273,11.9695 L17.9592,11.9695 C19.0313455,11.9695 19.3235636,12.4775 19.3235636,13.0135 C19.3235636,13.5495 18.9336,14.066 17.9592,14.066 L17.9592,14.066 Z" id="Fill-77"></path>
        </g>
    </g>
</svg>