<?xml version="1.0" encoding="UTF-8"?>
<svg width="30px" height="40px" viewBox="0 0 30 40" version="1.1" xmlns="http://www.w3.org/2000/svg" xmlns:xlink="http://www.w3.org/1999/xlink">
    <!-- Generator: Sketch 53.2 (72643) - https://sketchapp.com -->
    <title>icons/currencys/ripple/active</title>
    <desc>Created with Sketch.</desc>
    <g id="icons/currencys/ripple/active" stroke="none" stroke-width="1" fill="none" fill-rule="evenodd">
        <rect id="Rectangle" fill-opacity="0" fill="#D8D8D8" fill-rule="nonzero" x="0" y="-5" width="30" height="50"></rect>
        <g id="iconfinder_Ripple_2785330" transform="translate(1.000000, 5.000000)" fill="#FFFFFF">
            <path d="M15.2518065,6.26665064 C15.2518065,7.48064439 15.6871637,8.59798029 16.242511,9.63404665 C16.7098655,10.5056504 16.9459668,12.1228661 15.3441623,13.0403944 C14.1522627,13.7230104 12.6648728,13.2909353 11.9216627,12.1115653 C11.2943216,11.1151719 10.5368096,10.1817745 9.47605048,9.57441693 C6.45472916,7.84419332 2.59153934,8.87088243 0.847443786,11.8675163 C0.278037192,12.845636 0.00484807658,13.9124789 0,14.966338 C0.00993855698,17.1786488 1.14172203,19.2712191 3.1592491,20.4265448 C5.11375117,21.5460448 7.5215484,21.5460448 9.47605048,20.4265448 C10.5363248,19.8194277 11.2940792,18.8867516 11.9214204,17.8910796 C12.436286,17.0733349 13.7224808,16.0312575 15.34392,16.9608079 C16.5338803,17.6427026 16.9018494,19.1368117 16.2420262,20.3676364 C15.6869214,21.4037029 15.2520489,22.5203174 15.2520489,23.7343111 C15.2520489,27.1947584 18.0801744,30 21.5688502,30 C25.0572838,30 27.8851669,27.1947584 27.8851669,23.7343111 C27.8851669,21.4957923 26.6813895,19.4277471 24.7268874,18.3082472 C23.6576441,17.6958403 22.4533818,17.5183938 21.260755,17.4770378 C20.2598696,17.4421736 18.7669044,16.8062034 18.7669044,15.0004809 C18.7669044,13.6549651 19.8664482,12.5722529 21.2612399,12.5241645 C22.4541091,12.4828084 23.6578865,12.304881 24.7268874,11.6927146 C27.7482088,9.96273143 28.7835155,6.13056023 27.0391775,3.13368598 C25.8693366,1.12382784 23.7456366,1.42108547e-14 21.5627902,1.42108547e-14 C20.4908805,1.42108547e-14 19.4051537,0.270738158 18.4103284,0.840346238 C16.4558264,1.95984612 15.2518065,4.0283722 15.2518065,6.26665064 Z" id="Path"></path>
        </g>
    </g>
</svg>