<?xml version="1.0" encoding="UTF-8"?>
<svg width="30px" height="40px" viewBox="0 0 30 40" version="1.1" xmlns="http://www.w3.org/2000/svg" xmlns:xlink="http://www.w3.org/1999/xlink">
    <!-- Generator: Sketch 53.2 (72643) - https://sketchapp.com -->
    <title>icons/currencys/bitcoin/active</title>
    <desc>Created with Sketch.</desc>
    <g id="icons/currencys/bitcoin/active" stroke="none" stroke-width="1" fill="none" fill-rule="evenodd">
        <path d="M0,19.9999614 C0,11.7263139 6.72625411,5 15,5 C23.2736688,5 30,11.7263139 30,19.9999614 C30,28.2736089 23.2736688,35 15,35 C6.72625411,35 0,28.2736089 0,19.9999614 Z M13.6362719,20.3526396 L16.5489826,21.1330981 C17.9083109,21.497329 18.4769516,22.6111624 18.1012607,23.8839959 C17.8523223,24.8130468 17.2083004,25.5332899 16.3457654,25.6455493 C16.0201969,25.6956298 15.5908844,25.6148831 15.2349338,25.5195065 L12.4516452,24.7737265 L13.6362719,20.3526396 Z M18.823336,15.4931111 C19.3199713,15.9695591 19.4396023,16.6883639 19.2421785,17.4251595 C18.9331327,18.5785342 18.0388593,19.1973516 16.8738224,18.8851809 L14.2199559,18.1740796 L15.2586734,14.2975332 L17.5889053,14.921917 C18.1066731,15.0606524 18.5426234,15.2462069 18.823336,15.4931111 Z M14.9015292,27.799483 C15.5487983,27.9729182 16.1485208,28.0649551 16.8472045,28.0461922 C18.6027355,27.9671519 20.3569534,26.8576351 20.930068,24.8480059 C21.3507148,23.2781306 20.9926155,21.6370748 19.4556828,20.6414506 C20.8162095,20.3536238 21.7725824,19.3737838 22.1503073,17.964095 C22.5967115,16.2980921 21.9929061,14.7971742 20.7709943,13.9204144 C20.2247204,13.4993241 19.6356037,13.2384415 18.8675052,12.9982591 L19.4769831,10.7236567 C18.462886,10.4519302 17.9558375,10.316067 17.9558375,10.316067 C17.9558375,10.316067 17.7555355,11.0636043 17.3549314,12.558679 L15.7691538,12.1337712 L16.3700599,9.89115915 C15.3560156,9.61944679 14.8489934,9.48359059 14.8489934,9.48359059 C14.8489934,9.48359059 14.6486913,10.2311279 14.2480873,11.7262026 L11.2058753,10.9110444 C10.8396003,12.2780011 10.6564628,12.9614795 10.6564628,12.9614795 C10.6564628,12.9614795 10.9693254,13.0453107 11.5950504,13.2129733 C12.0481071,13.3343694 12.3420373,13.7907899 12.2132717,14.2713496 L9.78389006,23.3379253 C9.66371722,23.7864165 9.20465835,24.075529 8.71928561,23.9454737 L7.780698,23.6939799 C7.414451,25.0608323 7.23132747,25.7442586 7.23132747,25.7442586 C7.23132747,25.7442586 8.24539823,26.0159781 10.2735395,26.5594169 L9.67261247,28.8021071 C10.6866569,29.0738195 11.193679,29.2096757 11.193679,29.2096757 C11.193679,29.2096757 11.3939881,28.4621122 11.7946061,26.9669855 L13.3803836,27.3918933 L12.7794566,29.6345835 C13.7935537,29.90631 14.3006022,30.0421732 14.3006022,30.0421732 C14.3006022,30.0421732 14.5009112,29.2946097 14.9015292,27.799483 Z" id="Combined-Shape" fill="#FFFFFF" fill-rule="nonzero"></path>
    </g>
</svg>