<?xml version="1.0" encoding="UTF-8"?>
<svg width="30px" height="40px" viewBox="0 0 30 40" version="1.1" xmlns="http://www.w3.org/2000/svg" xmlns:xlink="http://www.w3.org/1999/xlink">
    <!-- Generator: sketchtool 52.6 (67491) - http://www.bohemiancoding.com/sketch -->
    <title>C5B93268-62AB-44CD-85B2-E0FE3DDC5EBD</title>
    <desc>Created with sketchtool.</desc>
    <g id="Symbols" stroke="none" stroke-width="1" fill="none" fill-rule="evenodd">
        <g id="icons/currencys/RSB/default">
            <rect id="Rectangle" fill-opacity="0" fill="#D8D8D8" fill-rule="nonzero" x="0" y="-5" width="30" height="50"></rect>
            <circle id="Oval" stroke="#9F0527" fill-rule="nonzero" cx="15" cy="21" r="14"></circle>
            <g id="RSB" transform="translate(2.000000, 7.000000)" fill="#9F0527">
                <path d="M6.37023593,16.6116152 C6.5906558,16.3654316 6.8591451,16.166983 7.15916515,16.0284936 C8.085149,15.723773 9.05602891,15.5779753 10.0306715,15.5972777 C10.4332353,15.5987452 10.8175846,15.7652375 11.0940109,16.0578947 C11.3243194,16.2882033 10.9274047,16.3225045 10.7264973,16.1558984 C10.5443294,16.00717 10.3147546,15.9289059 10.0796733,15.9353902 C9.86371749,15.9394968 9.65322781,16.0040017 9.47205082,16.1215971 C9.33974592,16.2245009 9.30544465,16.361706 8.98203267,16.4548094 C8.67339301,16.4913166 8.3629481,16.403122 8.11960073,16.2098004 C8.32999538,16.657022 8.84047419,16.8775993 9.31034483,16.7243194 C9.50747209,16.6308962 9.72006466,16.5744263 9.93756806,16.5577132 C10.2245891,16.5358231 10.5059553,16.6458445 10.7019964,16.8566243 C10.0355717,16.822323 8.91833031,17.2388385 8.38421053,17.3466425 C7.95997828,17.4377436 7.5289155,17.4934704 7.09546279,17.5132486 C7.49009093,17.9224245 8.05612468,18.1189892 8.61941924,18.0424682 C9.0800363,18.0424682 10.5794918,17.9346642 11.4615245,18.0130672 C12.5787659,18.1061706 13.4754991,18.8411978 13.4754991,19.9339383 C13.4770279,20.5793897 13.2023822,21.1946672 12.7208711,21.6245009 C13.2823707,21.4526844 13.7616535,21.081458 14.0684211,20.5807623 C14.4912616,22.1577054 13.8846038,23.8309067 12.5493648,24.7704174 C10.9701462,25.5848331 9.11141704,25.6583929 7.47277677,24.9713249 C6.40731376,24.516151 5.44540148,23.8493141 4.64537205,23.0112523 C9.10453721,23.3738657 11.2900181,22.1341198 11.2900181,22.1341198 C8.31570188,22.3314935 5.33889378,21.7876536 2.62649728,20.5513612 C1.88877369,19.385352 1.35826954,18.1005372 1.0584392,16.7537205 C2.90253262,18.2062285 5.05761405,19.2124922 7.35517241,19.6938294 C3.75353902,17.7337568 1.96497278,15.5433757 0.764428312,13.3578947 C0.833195507,12.1262029 1.08760772,10.9119628 1.51905626,9.75626134 C2.85680581,13.3235935 4.32196007,14.3869328 4.32196007,14.3869328 C3.21726306,12.0408873 2.75721829,9.44298738 2.98911071,6.86025408 C3.53990572,6.07542346 4.18136189,5.35830836 4.90018149,4.72377495 C4.54036746,6.4624437 4.57889884,8.26001625 5.01288566,9.98166969 C5.01288566,7.46297641 6.42413793,4.46406534 7.54627949,2.93520871 C8.24271847,2.58239263 8.97336947,2.30162561 9.72686025,2.09727768 C9.11457673,2.86819526 8.61923788,3.72513148 8.25680581,4.64047187 C10.3589837,2.63139746 13.8430127,1.42595281 14.3722323,1.29364791 C14.9014519,1.16134301 16.4499093,0.602722323 16.8811252,0.490018149 C17.3123412,0.377313975 17.4642468,0.646823956 17.4397459,0.886932849 C17.3992551,1.165791 17.3436377,1.4422423 17.2731397,1.71506352 C17.9018577,1.83890786 18.482792,2.13786821 18.9490018,2.57749546 C18.928763,2.43775258 18.928763,2.29582274 18.9490018,2.15607985 C20.5562613,3.59673321 20.9972777,4.28275862 21.0413793,5.5862069 C21.0854809,6.88965517 21.6588022,7.09056261 21.9871143,7.26696915 C22.4767826,7.52169005 22.9483169,7.80984987 23.3983666,8.12940109 C23.5943739,8.29600726 23.5110708,8.48221416 23.3983666,8.61941924 C23.3155404,8.71053702 23.2700552,8.82949827 23.2709619,8.95263158 C23.2545946,9.45476688 22.9285128,9.89409862 22.4526316,10.0551724 C22.1577592,10.1350121 21.8438224,10.1036184 21.5705989,9.96696915 C21.0805808,10.4569873 21.0217786,10.1433757 20.9972777,9.96696915 C20.9727768,9.79056261 20.7326679,9.92286751 20.5562613,9.96696915 C20.3798548,10.0110708 20.3161525,9.79056261 20.3161525,9.79056261 C19.874225,9.69872692 19.4165355,9.8457085 19.1107078,10.177677 C19.6062362,10.2079847 20.0423167,10.515137 20.2377495,10.9715064 C20.2720508,11.177314 20.600363,11.0401089 20.600363,11.0401089 C20.6393884,10.9784802 20.6981022,10.9318546 20.7669691,10.907804 C20.899274,10.8392015 20.9335753,10.8735027 20.899274,11.0401089 C20.8649728,11.2067151 20.8306715,11.33902 20.8306715,11.33902 L21.1981851,11.5742287 C21.06098,12.4709619 20.6689655,12.4317604 20.4680581,12.3337568 C19.1989111,11.6967332 16.930127,11.5742287 16.930127,11.5742287 C17.0616993,11.4048984 17.2130457,11.251907 17.3809437,11.1185118 C11.5644283,11.1185118 10.584392,11.8241379 10.2854809,12.2014519 C10.1697082,12.4043548 10.1587638,12.6506029 10.2560799,12.8629764 C9.56025408,12.9952813 7.80598911,13.4411978 7.13466425,14.0586207 C6.46333938,14.6760436 6.26733212,16.0480944 6.2477314,16.5577132 C6.2477314,16.6655172 6.34573503,16.6655172 6.38983666,16.6018149 L6.37023593,16.6116152 Z M16.5038113,1.57295826 C16.5675136,1.49945554 16.5038113,1.44065336 16.3274047,1.57295826 C15.7255632,1.93669021 15.2210822,2.44117114 14.8573503,3.0430127 C14.7887477,3.1508167 14.8279492,3.31742287 15.1072595,3.21941924 C15.3838105,3.12917908 15.6673554,3.0619806 15.9549909,3.0185118 C16.1117967,3.0185118 16.1117967,2.8862069 16.0039927,2.84210526 C15.8961887,2.79800363 15.8667877,2.753902 15.9157895,2.57749546 C16.0626762,2.22268386 16.2625962,1.89223752 16.5087114,1.59745917 L16.5038113,1.57295826 Z M15.0337568,3.95934664 C13.3792983,5.41790198 12.0445941,7.20306887 11.1136116,9.20254083 C11.0499093,9.35934664 11.1136116,9.38384755 11.3341198,9.24664247 C11.708402,9.03658122 12.1002628,8.85950606 12.5052632,8.71742287 C12.5052632,8.71742287 12.1720508,9.8738657 12.0642468,10.5108893 C11.9760436,11.0352087 12.4072595,11.0009074 12.6767695,10.9323049 C12.9462795,10.8637024 14.0782214,10.8196007 14.2595281,10.7803993 C14.2595281,10.7803993 13.2255898,10.5353902 13.1177858,10.1188748 C13.0099819,9.70235935 13.3039927,8.7615245 13.5147005,8.12940109 C13.5588022,7.99219601 13.4901996,7.79618875 13.2696915,7.88439201 C13.0381089,7.95284013 12.8106862,8.03464687 12.5885662,8.12940109 C13.2077617,6.64902394 14.0325756,5.26333653 15.038657,4.01324864 L15.038657,3.9446461 L20.1887477,5.02758621 C20.0760436,5.89491833 19.7575318,5.81651543 19.6105263,5.77731397 C19.4011961,5.68582673 19.1771248,5.63271353 18.9490018,5.62050817 C18.8019964,5.62050817 18.1257713,5.5323049 18.4883848,5.81651543 C18.924156,6.22704357 19.2884899,6.70730188 19.5664247,7.23756806 C19.5996611,6.9250989 19.5400037,6.6097671 19.3949183,6.33103448 C19.3067151,6.17422868 19.3949183,6.13012704 19.522323,6.15462795 C19.6583242,6.18846153 19.7864652,6.24837161 19.899637,6.33103448 C20.0956443,6.43883848 20.2279492,6.41923775 20.2720508,6.15462795 C20.3126978,5.78004683 20.3126978,5.40216733 20.2720508,5.02758621 C20.2720508,4.99328494 20.2181488,4.97858439 20.2083485,5.02758621 L15.0484574,3.95934664 L15.0337568,3.95934664 Z" id="Shape"></path>
                <path d="M21.653902,22.8495463 C21.1393829,21.1099819 19.6938294,19.9976407 18.9147005,19.0372051 C18.5912886,18.6451906 18.1110708,18.0914701 18.1110708,18.0914701 C18.5392827,18.2866769 18.9929636,18.4203066 19.4586207,18.4883848 C19.095835,18.1356657 18.7569709,17.7591501 18.4442831,17.361343 C17.7606936,16.5673734 16.9283613,15.9148249 15.9941924,15.4404719 C14.914021,14.9874747 13.7701083,14.7048027 12.6032668,14.6025408 C12.3778584,14.553539 11.9172414,14.6417423 12.2014519,14.200726 C12.8060227,13.5651409 13.4615656,12.9800688 14.1615245,12.4513612 C13.8136116,12.4513612 12.2700544,12.5885662 11.8045372,12.6522686 C11.33902,12.715971 11.2361162,12.5640653 11.2116152,12.2553539 C11.2116152,12.2553539 10.2805808,13.1324864 10.7215971,13.5833031 C10.8744497,13.6660774 11.0587626,13.6660774 11.2116152,13.5833031 C11.5015434,13.4576971 11.8036994,13.3624523 12.1132486,13.2990926 C11.9271401,13.5798643 11.7633001,13.8747763 11.6232305,14.1811252 C11.5350272,14.445735 11.5105263,14.5780399 11.9319419,14.715245 C13.2754478,15.1105 14.5631272,15.6753006 15.7638838,16.3960073 C17.3383553,17.3879529 18.6004623,18.8046382 19.4047187,20.4827586 C20.384755,22.5653358 19.8506352,24.1431942 19.6938294,24.4323049 C20.4006505,23.9801953 21.0576636,23.4545848 21.653902,22.8642468 L21.653902,22.8495463 Z" id="Path"></path>
                <path d="M24.5499093,18.4442831 C23.2758621,17.4054446 21.0364791,15.5482759 18.307078,14.9063521 C18.307078,14.9063521 22.2027223,16.46951 23.5943739,20.4043557 C23.9693947,19.7800913 24.2891236,19.1242371 24.5499093,18.4442831 Z" id="Path"></path>
                <path d="M16.9056261,25.7406534 C17.5190059,24.1190437 17.6550427,22.3556664 17.2976407,20.6591652 C17.2976407,20.6591652 17.3858439,24.8782214 14.499637,26.269873 C15.3152377,26.1741435 16.1194623,25.9985271 16.900726,25.7455535 L16.9056261,25.7406534 Z" id="Path"></path>
                <path d="M25.3780399,13.8332123 C25.000726,13.6813067 22.6927405,13.0295826 22.6927405,13.0295826 C23.1338926,13.0165205 23.5397297,12.7851383 23.7756806,12.4121597 C22.874906,12.6319891 21.9412664,12.6834888 21.0217786,12.5640653 C22.5900986,13.313776 24.0304565,14.3059858 25.2898367,15.5041742 C25.3466537,15.0063463 25.3760991,14.5057747 25.3780399,14.0047187 L25.3780399,13.8381125 L25.3780399,13.8332123 Z" id="Path"></path>
            </g>
        </g>
    </g>
</svg>