<svg width="205" height="62" viewBox="0 0 205 62" fill="none" xmlns="http://www.w3.org/2000/svg">
<path d="M53.0562 46.3507V23.7577H58.4708V26.1536C59.3634 25.2366 60.4307 24.5076 61.6096 24.0097C62.7885 23.5118 64.0552 23.255 65.3349 23.2546C70.6777 23.3025 74.2715 27.0161 74.2715 32.7183V46.3507H68.9048V33.9162C68.9048 30.1188 66.8923 28.3578 64.0052 28.3578C63.249 28.3443 62.4982 28.4883 61.8007 28.7807C61.1031 29.0731 60.4741 29.5075 59.9535 30.0562C59.433 30.6049 59.0323 31.256 58.777 31.968C58.5218 32.6799 58.4175 33.4372 58.4708 34.1917V46.3507H53.0562Z" fill="#17162D"/>
<path d="M89.5574 23.3031C96.0502 23.3031 100.495 28.0109 100.495 34.7433C100.466 35.669 100.39 36.5927 100.267 37.5105H83.2323C83.7244 38.9109 84.6624 40.111 85.9024 40.9268C87.1423 41.7426 88.6157 42.129 90.0965 42.0267C91.161 42.0611 92.2211 41.8733 93.2091 41.4752C94.197 41.0771 95.0912 40.4776 95.8346 39.7147L99.2726 43.1049C98.0917 44.3288 96.6666 45.2908 95.09 45.9285C93.5133 46.5661 91.8202 46.8653 90.1204 46.8065C88.5404 46.8742 86.9629 46.6223 85.4826 46.0659C84.0022 45.5095 82.6494 44.66 81.5051 43.5683C80.3608 42.4766 79.4487 41.1652 78.8233 39.7126C78.198 38.26 77.8722 36.6961 77.8656 35.1147C77.8233 33.5622 78.0959 32.0172 78.667 30.5729C79.238 29.1287 80.0957 27.815 81.1883 26.7113C82.2809 25.6075 83.5857 24.7365 85.0241 24.1507C86.4624 23.565 88.0046 23.2766 89.5574 23.3031V23.3031ZM83.1365 33.2938H95.4153C95.2614 31.8296 94.5574 30.4784 93.4456 29.5133C92.3337 28.5482 90.8969 28.0412 89.4256 28.0948C87.9253 28.0522 86.4606 28.5559 85.3038 29.5122C84.147 30.4685 83.3768 31.8123 83.1365 33.2938V33.2938Z" fill="#17162D"/>
<path d="M104.148 23.7626C104.412 23.783 104.677 23.7475 104.926 23.6583C105.175 23.5691 105.403 23.4284 105.594 23.2452C105.785 23.062 105.936 22.8406 106.035 22.5953C106.135 22.3501 106.181 22.0865 106.172 21.822V17.7131H111.575V23.7027H117.397V29.1294H111.575V37.2154C111.575 40.8092 112.126 41.6957 114.318 41.6957C115.35 41.681 116.378 41.5606 117.385 41.3363V46.3916C116.141 46.6894 114.867 46.8421 113.587 46.8468C108.364 46.8468 106.172 44.4509 106.172 38.7967V29.1294H101.956V23.7626H104.148Z" fill="#17162D"/>
<path d="M131.401 23.3029C137.894 23.3029 142.338 28.0107 142.338 34.7431C142.308 35.6488 142.232 36.5524 142.11 37.4504H125.076C125.568 38.8508 126.506 40.0509 127.746 40.8667C128.986 41.6825 130.459 42.069 131.94 41.9666C132.99 42.0004 134.036 41.8179 135.013 41.4305C135.99 41.0431 136.877 40.459 137.618 39.7145L141.056 43.1047C139.875 44.3286 138.45 45.2906 136.874 45.9283C135.297 46.5659 133.604 46.8651 131.904 46.8063C130.33 46.8641 128.76 46.6049 127.288 46.044C125.816 45.4831 124.472 44.632 123.336 43.5414C122.199 42.4507 121.293 41.1426 120.673 39.695C120.052 38.2474 119.728 36.6897 119.721 35.1145C119.679 33.563 119.951 32.019 120.521 30.5756C121.092 29.1321 121.948 27.8191 123.04 26.7155C124.131 25.6119 125.434 24.7406 126.871 24.1541C128.308 23.5676 129.849 23.2781 131.401 23.3029V23.3029ZM124.98 33.2936H137.259C137.105 31.8294 136.401 30.4782 135.289 29.5131C134.177 28.548 132.74 28.041 131.269 28.0946C129.769 28.052 128.304 28.5557 127.147 29.512C125.99 30.4683 125.22 31.8121 124.98 33.2936V33.2936Z" fill="#17162D"/>
<path d="M142.386 46.3624L151.407 34.6586L143.021 23.7694H149.742L154.773 30.1903L159.768 23.7694H166.513L158.127 34.6586L167.135 46.3624H160.367L154.773 39.1748L149.143 46.3624H142.386Z" fill="#17162D"/>
<path d="M172.373 32.8735C172.373 31.9394 172.542 31.0898 172.88 30.3248C173.227 29.5597 173.707 28.9014 174.321 28.3498C174.935 27.7983 175.673 27.3712 176.536 27.0688C177.399 26.7663 178.351 26.6151 179.392 26.6151C180.397 26.6151 181.318 26.753 182.154 27.0288C182.991 27.3045 183.707 27.6915 184.303 28.1897C184.908 28.679 185.375 29.2706 185.704 29.9645C186.042 30.6495 186.211 31.4056 186.211 32.233C186.211 32.7578 186.135 33.2738 185.984 33.7809C185.833 34.2791 185.579 34.8039 185.223 35.3555C184.877 35.9071 184.418 36.5031 183.849 37.1436C183.28 37.7752 182.577 38.4825 181.741 39.2653L178.058 42.7748V43.015H186.491V46.3644H172.6V43.5488L178.885 37.3971C179.561 36.7388 180.117 36.1739 180.553 35.7024C180.998 35.2221 181.345 34.7995 181.594 34.4347C181.852 34.0611 182.03 33.7231 182.128 33.4206C182.225 33.1181 182.274 32.8112 182.274 32.4998C182.274 32.1173 182.199 31.7659 182.048 31.4457C181.896 31.1165 181.687 30.8363 181.42 30.605C181.153 30.3648 180.833 30.1824 180.46 30.0579C180.095 29.9244 179.695 29.8577 179.259 29.8577C178.787 29.8577 178.36 29.9333 177.978 30.0846C177.595 30.2269 177.261 30.4315 176.977 30.6984C176.701 30.9564 176.487 31.2722 176.336 31.6458C176.185 32.0106 176.109 32.4153 176.109 32.8601V32.9402H172.373V32.8735Z" fill="#17162D"/>
<path d="M198.635 43.0017H189.214V39.4388C190.077 37.8019 191.14 35.9738 192.403 33.9544C193.666 31.9349 195.143 29.6531 196.833 27.1088H202.478V39.6523H205V43.0017H202.478V46.3644H198.635V43.0017ZM192.83 39.7724H198.728V30.2447H198.515C198.07 30.903 197.625 31.5702 197.18 32.2463C196.744 32.9224 196.295 33.6385 195.833 34.3947C195.37 35.142 194.89 35.9426 194.391 36.7967C193.902 37.6418 193.382 38.5625 192.83 39.5589V39.7724Z" fill="#17162D"/>
<path d="M34.8238 1.19804e-05H23.9586C22.3701 1.19804e-05 20.8466 0.631063 19.7233 1.75434C18.6 2.87762 17.969 4.40111 17.969 5.98967V20.1851C16.4285 18.6569 14.6019 17.4471 12.5938 16.6249C10.5856 15.8028 8.43512 15.3843 6.26518 15.3934V15.3934C4.61908 15.3901 3.03807 16.036 1.86517 17.191C0.692261 18.3459 0.0220708 19.9168 0 21.5628L0 55.5121C0 57.1007 0.631051 58.6242 1.75433 59.7475C2.87761 60.8707 4.4011 61.5018 5.98965 61.5018H16.8908C18.4794 61.5018 20.0029 60.8707 21.1261 59.7475C22.2494 58.6242 22.8805 57.1007 22.8805 55.5121V41.2927C25.9939 44.3758 30.2026 46.0989 34.5843 46.0844C36.2386 46.0812 37.8242 45.4227 38.994 44.2529C40.1637 43.0831 40.8223 41.4975 40.8255 39.8432V5.98967C40.8255 5.20208 40.6702 4.42223 40.3684 3.69475C40.0666 2.96727 39.6244 2.30645 39.0669 1.7501C38.5095 1.19375 37.8478 0.752807 37.1197 0.452504C36.3916 0.152201 35.6114 -0.00156318 34.8238 1.19804e-05V1.19804e-05ZM16.8549 56.5903H5.98965C5.70371 56.5903 5.42949 56.4767 5.2273 56.2745C5.02511 56.0723 4.91152 55.7981 4.91152 55.5121V21.5628C4.91152 21.2069 5.05287 20.8657 5.30449 20.6141C5.5561 20.3624 5.89736 20.2211 6.2532 20.2211V20.2211C7.79375 20.2211 9.31918 20.5249 10.7422 21.1152C12.1652 21.7055 13.4578 22.5706 14.546 23.661C15.6342 24.7515 16.4967 26.0458 17.084 27.47C17.6714 28.8942 17.9721 30.4203 17.969 31.9608V55.5121C17.969 55.6547 17.9407 55.7959 17.8858 55.9275C17.8308 56.0591 17.7503 56.1785 17.649 56.2788C17.5476 56.379 17.4273 56.4582 17.2951 56.5117C17.1629 56.5651 17.0214 56.5919 16.8788 56.5903H16.8549ZM35.9379 39.8911C35.9379 40.2469 35.7966 40.5882 35.545 40.8398C35.2933 41.0914 34.9521 41.2328 34.5962 41.2328C31.4921 41.2296 28.5158 39.9959 26.3197 37.8021C24.1236 35.6082 22.8868 32.6332 22.8805 29.529V5.98967C22.8805 5.70373 22.9941 5.4295 23.1963 5.22731C23.3984 5.02512 23.6727 4.91153 23.9586 4.91153H34.8598C35.1457 4.91153 35.42 5.02512 35.6221 5.22731C35.8243 5.4295 35.9379 5.70373 35.9379 5.98967V39.8911Z" fill="url(#paint0_linear_18328_47346)"/>
<path d="M59.0391 6.84604C58.9606 6.43163 58.7774 6.10116 58.4895 5.85461C58.2017 5.60282 57.8117 5.47693 57.3197 5.47693C56.7021 5.47693 56.2258 5.69987 55.8908 6.14575C55.561 6.59162 55.3962 7.24471 55.3962 8.10499C55.3962 8.97576 55.561 9.63934 55.8908 10.0957C56.2258 10.5468 56.7021 10.7724 57.3197 10.7724C57.7908 10.7724 58.1729 10.6622 58.466 10.4419C58.7591 10.2164 58.9501 9.8885 59.0391 9.45836H61.1747C61.1275 9.94621 61.0045 10.3868 60.8056 10.7803C60.612 11.1737 60.3503 11.5094 60.0205 11.7874C59.6908 12.0654 59.2982 12.2805 58.8428 12.4326C58.3927 12.5795 57.885 12.653 57.3197 12.653C56.6445 12.653 56.0426 12.5533 55.5139 12.354C54.9905 12.1494 54.5482 11.8556 54.1871 11.4727C53.8311 11.0845 53.559 10.6098 53.3705 10.0485C53.1821 9.48197 53.0879 8.83413 53.0879 8.10499C53.0879 7.38634 53.1795 6.74637 53.3627 6.18509C53.5511 5.62381 53.8259 5.1517 54.1871 4.76877C54.5482 4.38584 54.9905 4.0947 55.5139 3.89537C56.0426 3.69604 56.6445 3.59637 57.3197 3.59637C57.8902 3.59637 58.4032 3.67243 58.8585 3.82455C59.3191 3.97668 59.7117 4.19437 60.0362 4.47764C60.3607 4.7609 60.6198 5.10449 60.8135 5.5084C61.0072 5.90707 61.1275 6.35295 61.1747 6.84604H59.0391Z" fill="#17162D"/>
<path d="M63.1076 0.472595H65.353V5.2094H65.4943C65.6932 4.71107 66.0178 4.32289 66.4679 4.04487C66.9233 3.76161 67.4702 3.61997 68.1088 3.61997C68.5746 3.61997 68.9908 3.69341 69.3571 3.84029C69.7235 3.98192 70.035 4.19175 70.2914 4.46977C70.5479 4.74254 70.7416 5.08351 70.8724 5.49266C71.0085 5.89658 71.0766 6.35819 71.0766 6.87751V12.4641H68.7919V7.42043C68.7919 6.81719 68.6558 6.36344 68.3836 6.05919C68.1166 5.7497 67.7215 5.59495 67.1981 5.59495C66.9102 5.59495 66.6537 5.64217 66.4286 5.73659C66.2088 5.82576 66.0204 5.95428 65.8633 6.12214C65.7116 6.28475 65.5938 6.48147 65.51 6.71227C65.4315 6.94308 65.3923 7.20012 65.3923 7.48338V12.4641H63.1076V0.472595Z" fill="#17162D"/>
<path d="M76.4876 10.8747C76.7545 10.8747 77.0005 10.8353 77.2256 10.7567C77.4506 10.678 77.6469 10.5678 77.8144 10.4262C77.9819 10.2845 78.1128 10.1193 78.207 9.93047C78.3012 9.74163 78.3483 9.53705 78.3483 9.31673V8.67939L76.5975 8.78954C75.6239 8.85774 75.1372 9.20657 75.1372 9.83605C75.1372 10.1613 75.2628 10.4157 75.514 10.5993C75.7653 10.7829 76.0898 10.8747 76.4876 10.8747ZM75.7338 12.5979C75.3151 12.5979 74.933 12.5375 74.5876 12.4169C74.2421 12.291 73.9438 12.1153 73.6925 11.8897C73.4413 11.6589 73.245 11.3835 73.1037 11.0635C72.9676 10.7435 72.8996 10.3842 72.8996 9.98555C72.8996 9.19346 73.1874 8.5771 73.7632 8.13646C74.3389 7.69058 75.1686 7.43617 76.252 7.37322L78.3483 7.24733V6.53917C78.3483 6.17722 78.2227 5.8992 77.9714 5.70511C77.7254 5.50578 77.3643 5.40611 76.888 5.40611C76.4745 5.40611 76.1343 5.47431 75.8673 5.61069C75.6004 5.74708 75.4198 5.94641 75.3256 6.20869H73.2215C73.2581 5.81003 73.3732 5.4507 73.5669 5.13072C73.7658 4.80549 74.0301 4.53009 74.3599 4.30453C74.6896 4.07372 75.077 3.89799 75.5219 3.77734C75.972 3.65669 76.4692 3.59637 77.0136 3.59637C77.5841 3.59637 78.0918 3.66456 78.5367 3.80095C78.9869 3.93209 79.3637 4.12355 79.6673 4.37535C79.9709 4.62714 80.2012 4.93663 80.3582 5.30382C80.5205 5.66577 80.6016 6.07755 80.6016 6.53917V12.4641H78.3876V11.3311H78.2462C78.0212 11.7297 77.6862 12.0418 77.2413 12.2674C76.8016 12.4877 76.2991 12.5979 75.7338 12.5979Z" fill="#17162D"/>
<path d="M82.9114 3.78521H85.1254V5.17793H85.2667C85.4656 4.68484 85.7797 4.29928 86.2089 4.02126C86.6433 3.738 87.1824 3.59637 87.8262 3.59637C88.7893 3.59637 89.5221 3.87963 90.0246 4.44616C90.5323 5.01269 90.7862 5.81527 90.7862 6.85391V12.4641H88.5014V7.39683C88.5014 6.79358 88.3706 6.33983 88.1089 6.03559C87.8524 5.7261 87.452 5.57135 86.9076 5.57135C86.6407 5.57135 86.4026 5.61594 86.1932 5.70511C85.9838 5.79429 85.8032 5.92281 85.6515 6.09067C85.5049 6.25328 85.3924 6.45262 85.3138 6.68867C85.2353 6.91948 85.1961 7.17651 85.1961 7.45978V12.4641H82.9114V3.78521Z" fill="#17162D"/>
<path d="M98.898 8.04991C98.898 7.66698 98.8509 7.32339 98.7567 7.01914C98.6677 6.70965 98.5368 6.44737 98.3641 6.2323C98.1966 6.01723 97.9899 5.85199 97.7439 5.73659C97.5031 5.62118 97.2283 5.56348 96.9195 5.56348C96.6107 5.56348 96.3359 5.62118 96.0951 5.73659C95.8543 5.85199 95.6502 6.01723 95.4827 6.2323C95.3152 6.44737 95.187 6.70965 95.098 7.01914C95.0142 7.32339 94.9724 7.66436 94.9724 8.04204C94.9724 8.42497 95.0142 8.77118 95.098 9.08068C95.187 9.38492 95.3126 9.64458 95.4748 9.85965C95.6423 10.0747 95.8465 10.24 96.0872 10.3554C96.3332 10.4708 96.6107 10.5285 96.9195 10.5285C97.2283 10.5285 97.5057 10.4708 97.7517 10.3554C97.9977 10.24 98.2045 10.0747 98.3719 9.85965C98.5447 9.64458 98.6755 9.38492 98.7645 9.08068C98.8535 8.77643 98.898 8.43284 98.898 8.04991ZM96.8881 15.7531C96.3123 15.7531 95.7889 15.6928 95.3178 15.5721C94.8467 15.4515 94.4385 15.2784 94.093 15.0528C93.7528 14.8325 93.4806 14.565 93.2765 14.2502C93.0776 13.9408 92.9598 13.5945 92.9232 13.2116H95.1844C95.2419 13.4791 95.4225 13.6916 95.7261 13.849C96.0349 14.0063 96.4379 14.085 96.9352 14.085C97.5528 14.085 98.0291 13.9512 98.3641 13.6837C98.7043 13.4162 98.8744 13.0359 98.8744 12.5428V10.9376H98.7331C98.4923 11.3992 98.1495 11.7481 97.7046 11.9841C97.2649 12.2202 96.7389 12.3382 96.1265 12.3382C95.5874 12.3382 95.1006 12.2385 94.6662 12.0392C94.237 11.8346 93.8706 11.5461 93.567 11.1737C93.2634 10.8012 93.0305 10.3527 92.8682 9.82818C92.706 9.29837 92.6249 8.70561 92.6249 8.04991C92.6249 7.37847 92.706 6.7726 92.8682 6.2323C93.0305 5.68675 93.2634 5.22251 93.567 4.83958C93.8758 4.45665 94.2501 4.1629 94.6897 3.95832C95.1294 3.74849 95.624 3.64358 96.1736 3.64358C96.4667 3.64358 96.7467 3.6803 97.0137 3.75374C97.2806 3.82193 97.5266 3.9216 97.7517 4.05274C97.982 4.18388 98.1861 4.34649 98.3641 4.54058C98.5421 4.72943 98.6886 4.94187 98.8038 5.17793H98.9451V3.78521H101.159V12.4326C101.159 12.9415 101.06 13.4005 100.861 13.8096C100.662 14.2188 100.377 14.5676 100.005 14.8561C99.6334 15.1446 99.1832 15.3649 98.6546 15.5171C98.1312 15.6744 97.5423 15.7531 96.8881 15.7531Z" fill="#17162D"/>
<path d="M107.261 5.35103C106.994 5.35103 106.751 5.39562 106.531 5.4848C106.311 5.57397 106.117 5.69987 105.95 5.86248C105.788 6.0251 105.657 6.22181 105.557 6.45262C105.458 6.67818 105.398 6.93259 105.377 7.21585H109.067C109.041 6.63884 108.868 6.18509 108.549 5.85461C108.229 5.51889 107.8 5.35103 107.261 5.35103ZM111.242 9.99342C111.153 10.4026 110.996 10.7724 110.771 11.1029C110.551 11.4281 110.271 11.7061 109.93 11.9369C109.59 12.1677 109.195 12.3435 108.745 12.4641C108.3 12.59 107.813 12.653 107.285 12.653C106.625 12.653 106.036 12.5533 105.518 12.354C105 12.1494 104.56 11.8556 104.199 11.4727C103.838 11.0845 103.563 10.6124 103.375 10.0564C103.186 9.50033 103.092 8.87085 103.092 8.16794C103.092 7.45978 103.186 6.82506 103.375 6.26377C103.568 5.69724 103.846 5.21727 104.207 4.82385C104.568 4.43042 105.005 4.1288 105.518 3.91898C106.031 3.7039 106.609 3.59637 107.253 3.59637C107.892 3.59637 108.462 3.69604 108.965 3.89537C109.467 4.0947 109.891 4.38321 110.237 4.7609C110.587 5.13334 110.854 5.59233 111.037 6.13788C111.221 6.67818 111.312 7.29192 111.312 7.97909V8.67939H105.369V8.79741C105.374 9.12264 105.424 9.41377 105.518 9.67081C105.618 9.92785 105.751 10.1482 105.918 10.3318C106.091 10.5101 106.298 10.6491 106.539 10.7488C106.78 10.8432 107.049 10.8904 107.347 10.8904C107.803 10.8904 108.18 10.8144 108.478 10.6622C108.782 10.5049 108.994 10.2819 109.114 9.99342H111.242Z" fill="#17162D"/>
<path d="M117.267 6.33459C117.267 5.92543 117.353 5.55299 117.526 5.21727C117.698 4.8763 117.942 4.58779 118.256 4.35174C118.575 4.11044 118.955 3.92422 119.394 3.79308C119.839 3.66194 120.331 3.59637 120.87 3.59637C121.975 3.59637 122.838 3.81931 123.461 4.26519C124.084 4.70582 124.427 5.34316 124.49 6.17722H122.378C122.32 5.89396 122.163 5.67364 121.907 5.51627C121.65 5.35366 121.31 5.27235 120.886 5.27235C120.682 5.27235 120.493 5.29595 120.321 5.34316C120.148 5.38513 119.996 5.44808 119.865 5.53201C119.74 5.61069 119.64 5.70774 119.567 5.82314C119.499 5.9333 119.465 6.05657 119.465 6.19296C119.465 6.40803 119.559 6.58376 119.748 6.72014C119.936 6.85653 120.232 6.96931 120.635 7.05849L122.26 7.41257C122.679 7.50699 123.04 7.62239 123.343 7.75878C123.652 7.89516 123.906 8.0604 124.105 8.25449C124.304 8.44858 124.45 8.67152 124.545 8.92331C124.644 9.1751 124.694 9.46361 124.694 9.78884C124.694 10.2242 124.6 10.6176 124.411 10.9691C124.228 11.3206 123.969 11.6222 123.634 11.874C123.299 12.1205 122.896 12.312 122.425 12.4484C121.959 12.5848 121.443 12.653 120.878 12.653C120.308 12.653 119.795 12.5952 119.339 12.4798C118.884 12.3644 118.494 12.1966 118.169 11.9763C117.845 11.7559 117.586 11.4858 117.392 11.1658C117.204 10.8406 117.091 10.4681 117.055 10.0485H119.284C119.373 10.3475 119.554 10.5783 119.826 10.7409C120.098 10.8983 120.465 10.977 120.925 10.977C121.145 10.977 121.347 10.956 121.53 10.914C121.718 10.8668 121.878 10.8039 122.009 10.7252C122.14 10.6413 122.242 10.5442 122.315 10.434C122.388 10.3186 122.425 10.1901 122.425 10.0485C122.425 9.83342 122.338 9.66032 122.166 9.52918C121.993 9.39279 121.716 9.28263 121.333 9.1987L119.763 8.84462C118.921 8.66103 118.292 8.36465 117.879 7.95549C117.471 7.54633 117.267 7.00603 117.267 6.33459Z" fill="#17162D"/>
<path d="M129.759 10.8747C130.026 10.8747 130.272 10.8353 130.497 10.7567C130.722 10.678 130.919 10.5678 131.086 10.4262C131.254 10.2845 131.385 10.1193 131.479 9.93047C131.573 9.74163 131.62 9.53705 131.62 9.31673V8.67939L129.869 8.78954C128.896 8.85774 128.409 9.20657 128.409 9.83605C128.409 10.1613 128.535 10.4157 128.786 10.5993C129.037 10.7829 129.362 10.8747 129.759 10.8747ZM129.006 12.5979C128.587 12.5979 128.205 12.5375 127.859 12.4169C127.514 12.291 127.216 12.1153 126.964 11.8897C126.713 11.6589 126.517 11.3835 126.375 11.0635C126.239 10.7435 126.171 10.3842 126.171 9.98555C126.171 9.19346 126.459 8.5771 127.035 8.13646C127.611 7.69058 128.44 7.43617 129.524 7.37322L131.62 7.24733V6.53917C131.62 6.17722 131.494 5.8992 131.243 5.70511C130.997 5.50578 130.636 5.40611 130.16 5.40611C129.746 5.40611 129.406 5.47431 129.139 5.61069C128.872 5.74708 128.692 5.94641 128.597 6.20869H126.493C126.53 5.81003 126.645 5.4507 126.839 5.13072C127.038 4.80549 127.302 4.53009 127.632 4.30453C127.961 4.07372 128.349 3.89799 128.794 3.77734C129.244 3.65669 129.741 3.59637 130.285 3.59637C130.856 3.59637 131.364 3.66456 131.809 3.80095C132.259 3.93209 132.636 4.12355 132.939 4.37535C133.243 4.62714 133.473 4.93663 133.63 5.30382C133.792 5.66577 133.873 6.07755 133.873 6.53917V12.4641H131.659V11.3311H131.518C131.293 11.7297 130.958 12.0418 130.513 12.2674C130.073 12.4877 129.571 12.5979 129.006 12.5979Z" fill="#17162D"/>
<path d="M136.85 5.67364H135.453V3.87176H136.85V3.02197C136.85 2.14595 137.11 1.51385 137.628 1.12568C138.146 0.7375 138.913 0.543411 139.928 0.543411C140.153 0.543411 140.344 0.55128 140.501 0.567017C140.664 0.582753 140.828 0.603736 140.996 0.629964V2.27447C140.923 2.25873 140.818 2.24562 140.682 2.23513C140.551 2.21939 140.407 2.21152 140.25 2.21152C139.847 2.21152 139.551 2.29283 139.363 2.45544C139.18 2.61806 139.088 2.87772 139.088 3.23442V3.87176H140.925V5.67364H139.135V12.4641H136.85V5.67364Z" fill="#17162D"/>
<path d="M146.556 5.35103C146.289 5.35103 146.046 5.39562 145.826 5.4848C145.606 5.57397 145.412 5.69987 145.245 5.86248C145.083 6.0251 144.952 6.22181 144.852 6.45262C144.753 6.67818 144.693 6.93259 144.672 7.21585H148.362C148.336 6.63884 148.163 6.18509 147.844 5.85461C147.524 5.51889 147.095 5.35103 146.556 5.35103ZM150.537 9.99342C150.448 10.4026 150.291 10.7724 150.066 11.1029C149.846 11.4281 149.566 11.7061 149.226 11.9369C148.885 12.1677 148.49 12.3435 148.04 12.4641C147.595 12.59 147.108 12.653 146.58 12.653C145.92 12.653 145.331 12.5533 144.813 12.354C144.295 12.1494 143.855 11.8556 143.494 11.4727C143.133 11.0845 142.858 10.6124 142.67 10.0564C142.481 9.50033 142.387 8.87085 142.387 8.16794C142.387 7.45978 142.481 6.82506 142.67 6.26377C142.863 5.69724 143.141 5.21727 143.502 4.82385C143.863 4.43042 144.3 4.1288 144.813 3.91898C145.326 3.7039 145.904 3.59637 146.548 3.59637C147.187 3.59637 147.757 3.69604 148.26 3.89537C148.762 4.0947 149.186 4.38321 149.532 4.7609C149.882 5.13334 150.149 5.59233 150.333 6.13788C150.516 6.67818 150.607 7.29192 150.607 7.97909V8.67939H144.664V8.79741C144.669 9.12264 144.719 9.41377 144.813 9.67081C144.913 9.92785 145.046 10.1482 145.214 10.3318C145.386 10.5101 145.593 10.6491 145.834 10.7488C146.075 10.8432 146.344 10.8904 146.642 10.8904C147.098 10.8904 147.475 10.8144 147.773 10.6622C148.077 10.5049 148.289 10.2819 148.409 9.99342H150.537Z" fill="#17162D"/>
<path d="M152.627 0.472595H154.911V12.4641H152.627V0.472595Z" fill="#17162D"/>
<path d="M158.43 15.6194C158.409 15.6194 158.357 15.6194 158.273 15.6194C158.189 15.6194 158.098 15.6167 157.998 15.6115C157.899 15.6115 157.805 15.6089 157.716 15.6036C157.632 15.6036 157.58 15.601 157.559 15.5958V13.7545C157.58 13.7598 157.614 13.7624 157.661 13.7624C157.708 13.7676 157.758 13.7703 157.81 13.7703C157.868 13.7703 157.92 13.7703 157.967 13.7703C158.014 13.7703 158.051 13.7703 158.077 13.7703C158.506 13.7703 158.844 13.6968 159.09 13.55C159.341 13.4031 159.514 13.1644 159.608 12.8339L159.686 12.5192L156.648 3.78521H159.168L160.99 10.3632H161.131L162.952 3.78521H165.371L162.387 12.5979C162.204 13.1592 161.995 13.6313 161.759 14.0142C161.529 14.3971 161.257 14.7066 160.943 14.9427C160.629 15.184 160.265 15.3571 159.851 15.462C159.443 15.5669 158.969 15.6194 158.43 15.6194Z" fill="#17162D"/>
<path d="M171.064 1.10994L170.852 8.7266H168.755L168.551 1.10994H171.064ZM168.378 11.3625C168.378 10.9429 168.504 10.615 168.755 10.379C169.012 10.1377 169.362 10.017 169.807 10.017C170.252 10.017 170.6 10.1377 170.852 10.379C171.108 10.615 171.236 10.9429 171.236 11.3625C171.236 11.7769 171.108 12.1048 170.852 12.3461C170.6 12.5821 170.252 12.7002 169.807 12.7002C169.362 12.7002 169.012 12.5821 168.755 12.3461C168.504 12.1048 168.378 11.7769 168.378 11.3625Z" fill="#17162D"/>
<defs>
<linearGradient id="paint0_linear_18328_47346" x1="0" y1="30.7389" x2="40.8015" y2="30.7389" gradientUnits="userSpaceOnUse">
<stop stop-color="#71B95D"/>
<stop offset="1" stop-color="#287ABF"/>
</linearGradient>
</defs>
</svg>
