<svg width="205" height="63" viewBox="0 0 205 63" fill="none" xmlns="http://www.w3.org/2000/svg">
<path d="M53.0562 46.8525V24.2595H58.4708V26.6554C59.3634 25.7383 60.4307 25.0093 61.6096 24.5114C62.7885 24.0135 64.0552 23.7568 65.3349 23.7564C70.6777 23.8043 74.2715 27.5179 74.2715 33.22V46.8525H68.9048V34.418C68.9048 30.6205 66.8923 28.8596 64.0052 28.8596C63.249 28.846 62.4982 28.9901 61.8007 29.2825C61.1031 29.5749 60.4741 30.0092 59.9535 30.558C59.433 31.1067 59.0323 31.7577 58.777 32.4697C58.5218 33.1817 58.4175 33.939 58.4708 34.6935V46.8525H53.0562Z" fill="#17162D"/>
<path d="M89.5574 23.8049C96.0502 23.8049 100.495 28.5127 100.495 35.2451C100.466 36.1708 100.39 37.0944 100.267 38.0123H83.2323C83.7244 39.4126 84.6624 40.6128 85.9024 41.4286C87.1423 42.2444 88.6157 42.6308 90.0965 42.5285C91.161 42.5629 92.2211 42.375 93.2091 41.977C94.197 41.5789 95.0912 40.9793 95.8346 40.2165L99.2726 43.6067C98.0917 44.8306 96.6666 45.7925 95.09 46.4302C93.5133 47.0679 91.8202 47.3671 90.1204 47.3083C88.5404 47.376 86.9629 47.1241 85.4826 46.5677C84.0022 46.0113 82.6494 45.1618 81.5051 44.0701C80.3608 42.9784 79.4487 41.667 78.8233 40.2144C78.198 38.7618 77.8722 37.1979 77.8656 35.6165C77.8233 34.064 78.0959 32.519 78.667 31.0747C79.238 29.6305 80.0957 28.3168 81.1883 27.2131C82.2809 26.1093 83.5857 25.2383 85.0241 24.6525C86.4624 24.0667 88.0046 23.7784 89.5574 23.8049V23.8049ZM83.1365 33.7956H95.4153C95.2614 32.3314 94.5574 30.9802 93.4456 30.0151C92.3337 29.05 90.8969 28.543 89.4256 28.5966C87.9253 28.554 86.4606 29.0577 85.3038 30.014C84.147 30.9702 83.3768 32.3141 83.1365 33.7956V33.7956Z" fill="#17162D"/>
<path d="M104.148 24.2644C104.412 24.2848 104.677 24.2493 104.926 24.1601C105.175 24.0709 105.403 23.9302 105.594 23.747C105.785 23.5638 105.936 23.3423 106.035 23.0971C106.135 22.8518 106.181 22.5883 106.172 22.3238V18.2149H111.575V24.2045H117.397V29.6312H111.575V37.7172C111.575 41.311 112.126 42.1974 114.318 42.1974C115.35 42.1828 116.378 42.0624 117.385 41.8381V46.8933C116.141 47.1912 114.867 47.3439 113.587 47.3486C108.364 47.3486 106.172 44.9527 106.172 39.2985V29.6312H101.956V24.2644H104.148Z" fill="#17162D"/>
<path d="M131.401 23.8047C137.894 23.8047 142.338 28.5125 142.338 35.2449C142.308 36.1506 142.232 37.0542 142.11 37.9522H125.076C125.568 39.3525 126.506 40.5527 127.746 41.3685C128.986 42.1843 130.459 42.5707 131.94 42.4684C132.99 42.5022 134.036 42.3197 135.013 41.9323C135.99 41.5449 136.877 40.9608 137.618 40.2163L141.056 43.6065C139.875 44.8304 138.45 45.7924 136.874 46.43C135.297 47.0677 133.604 47.3669 131.904 47.3081C130.33 47.3659 128.76 47.1067 127.288 46.5458C125.816 45.9849 124.472 45.1338 123.336 44.0431C122.199 42.9525 121.293 41.6444 120.673 40.1968C120.052 38.7491 119.728 37.1914 119.721 35.6163C119.679 34.0648 119.951 32.5208 120.521 31.0774C121.092 29.6339 121.948 28.3208 123.04 27.2172C124.131 26.1136 125.434 25.2424 126.871 24.6559C128.308 24.0694 129.849 23.7798 131.401 23.8047V23.8047ZM124.98 33.7954H137.259C137.105 32.3312 136.401 30.98 135.289 30.0149C134.177 29.0498 132.74 28.5428 131.269 28.5964C129.769 28.5538 128.304 29.0575 127.147 30.0138C125.99 30.97 125.22 32.3139 124.98 33.7954V33.7954Z" fill="#17162D"/>
<path d="M142.386 46.8642L151.407 35.1604L143.021 24.2712H149.742L154.773 30.6921L159.768 24.2712H166.513L158.127 35.1604L167.135 46.8642H160.367L154.773 39.6766L149.143 46.8642H142.386Z" fill="#17162D"/>
<path d="M172.373 33.3753C172.373 32.4412 172.542 31.5916 172.88 30.8265C173.227 30.0615 173.707 29.4032 174.321 28.8516C174.935 28.3 175.673 27.873 176.536 27.5706C177.399 27.2681 178.351 27.1169 179.392 27.1169C180.397 27.1169 181.318 27.2548 182.154 27.5305C182.991 27.8063 183.707 28.1933 184.303 28.6915C184.908 29.1808 185.375 29.7724 185.704 30.4662C186.042 31.1512 186.211 31.9074 186.211 32.7347C186.211 33.2596 186.135 33.7756 185.984 34.2827C185.833 34.7809 185.579 35.3057 185.223 35.8573C184.877 36.4088 184.418 37.0049 183.849 37.6454C183.28 38.277 182.577 38.9843 181.741 39.7671L178.058 43.2766V43.5168H186.491V46.8662H172.6V44.0506L178.885 37.8989C179.561 37.2406 180.117 36.6757 180.553 36.2042C180.998 35.7238 181.345 35.3013 181.594 34.9365C181.852 34.5629 182.03 34.2248 182.128 33.9224C182.225 33.6199 182.274 33.313 182.274 33.0016C182.274 32.6191 182.199 32.2677 182.048 31.9474C181.896 31.6183 181.687 31.3381 181.42 31.1068C181.153 30.8666 180.833 30.6842 180.46 30.5597C180.095 30.4262 179.695 30.3595 179.259 30.3595C178.787 30.3595 178.36 30.4351 177.978 30.5863C177.595 30.7287 177.261 30.9333 176.977 31.2002C176.701 31.4582 176.487 31.774 176.336 32.1476C176.185 32.5123 176.109 32.9171 176.109 33.3619V33.442H172.373V33.3753Z" fill="#17162D"/>
<path d="M198.635 43.5035H189.214V39.9406C190.077 38.3037 191.14 36.4756 192.403 34.4561C193.666 32.4367 195.143 30.1549 196.833 27.6106H202.478V40.1541H205V43.5035H202.478V46.8662H198.635V43.5035ZM192.83 40.2742H198.728V30.7465H198.515C198.07 31.4048 197.625 32.072 197.18 32.7481C196.744 33.4242 196.295 34.1403 195.833 34.8965C195.37 35.6438 194.89 36.4444 194.391 37.2984C193.902 38.1436 193.382 39.0643 192.83 40.0607V40.2742Z" fill="#17162D"/>
<path d="M34.8238 0.501797H23.9586C22.3701 0.501797 20.8466 1.13285 19.7233 2.25613C18.6 3.3794 17.969 4.9029 17.969 6.49145V20.6869C16.4285 19.1587 14.6019 17.9489 12.5938 17.1267C10.5856 16.3046 8.43512 15.8861 6.26518 15.8952V15.8952C4.61908 15.8919 3.03807 16.5378 1.86517 17.6928C0.692261 18.8477 0.0220708 20.4186 0 22.0646L0 56.0139C0 57.6025 0.631051 59.126 1.75433 60.2492C2.87761 61.3725 4.4011 62.0036 5.98965 62.0036H16.8908C18.4794 62.0036 20.0029 61.3725 21.1261 60.2492C22.2494 59.126 22.8805 57.6025 22.8805 56.0139V41.7945C25.9939 44.8776 30.2026 46.6007 34.5843 46.5862C36.2386 46.583 37.8242 45.9245 38.994 44.7547C40.1637 43.5849 40.8223 41.9993 40.8255 40.345V6.49145C40.8255 5.70387 40.6702 4.92402 40.3684 4.19654C40.0666 3.46906 39.6244 2.80823 39.0669 2.25189C38.5095 1.69554 37.8478 1.25459 37.1197 0.95429C36.3916 0.653987 35.6114 0.500222 34.8238 0.501797V0.501797ZM16.8549 57.0921H5.98965C5.70371 57.0921 5.42949 56.9785 5.2273 56.7763C5.02511 56.5741 4.91152 56.2999 4.91152 56.0139V22.0646C4.91152 21.7087 5.05287 21.3675 5.30449 21.1158C5.5561 20.8642 5.89736 20.7229 6.2532 20.7229V20.7229C7.79375 20.7229 9.31918 21.0267 10.7422 21.617C12.1652 22.2072 13.4578 23.0724 14.546 24.1628C15.6342 25.2533 16.4967 26.5476 17.084 27.9718C17.6714 29.396 17.9721 30.922 17.969 32.4626V56.0139C17.969 56.1565 17.9407 56.2977 17.8858 56.4293C17.8308 56.5609 17.7503 56.6803 17.649 56.7805C17.5476 56.8808 17.4273 56.96 17.2951 57.0134C17.1629 57.0669 17.0214 57.0936 16.8788 57.0921H16.8549ZM35.9379 40.3929C35.9379 40.7487 35.7966 41.09 35.545 41.3416C35.2933 41.5932 34.9521 41.7346 34.5962 41.7346C31.4921 41.7314 28.5158 40.4977 26.3197 38.3038C24.1236 36.11 22.8868 33.135 22.8805 30.0308V6.49145C22.8805 6.20551 22.9941 5.93128 23.1963 5.72909C23.3984 5.5269 23.6727 5.41331 23.9586 5.41331H34.8598C35.1457 5.41331 35.42 5.5269 35.6221 5.72909C35.8243 5.93128 35.9379 6.20551 35.9379 6.49145V40.3929Z" fill="url(#paint0_linear_18875_55946)"/>
<path d="M64.1211 4.27054V13.0269H61.892V8.7289C61.892 8.30124 61.8974 7.88427 61.908 7.478C61.9294 7.07172 61.9562 6.69752 61.9882 6.35539H61.9401L59.5186 13.0269H57.7225L55.2689 6.33935H55.2047C55.2475 6.69217 55.2742 7.07172 55.2849 7.478C55.3063 7.87358 55.317 8.31193 55.317 8.79305V13.0269H53.0879V4.27054H56.4716L58.6526 10.2043L60.8657 4.27054H64.1211Z" fill="#17162D"/>
<path d="M70.2912 4.11017C71.4993 4.11017 72.4562 4.45764 73.1618 5.15259C73.8674 5.83685 74.2202 6.81512 74.2202 8.08741V9.2421H68.5753C68.5967 9.91566 68.7945 10.4449 69.1686 10.8298C69.5535 11.2147 70.0827 11.4071 70.7563 11.4071C71.3229 11.4071 71.8361 11.3537 72.2958 11.2468C72.7555 11.1291 73.2313 10.9527 73.723 10.7175V12.5618C73.2954 12.7756 72.841 12.9307 72.3599 13.0269C71.8895 13.1338 71.3175 13.1873 70.644 13.1873C69.7673 13.1873 68.9922 13.0269 68.3187 12.7061C67.6452 12.3747 67.1159 11.8776 66.7311 11.2147C66.3462 10.5518 66.1537 9.71787 66.1537 8.71287C66.1537 7.68648 66.3248 6.83651 66.6669 6.16294C67.0197 5.47868 67.5062 4.96549 68.1263 4.62336C68.7463 4.28123 69.468 4.11017 70.2912 4.11017ZM70.3072 5.81012C69.8475 5.81012 69.4626 5.9598 69.1526 6.25916C68.8533 6.55853 68.6768 7.02361 68.6234 7.65441H71.9751C71.9644 7.11983 71.8254 6.68148 71.5581 6.33935C71.2908 5.98653 70.8739 5.81012 70.3072 5.81012Z" fill="#17162D"/>
<path d="M78.6113 4.27054V7.63837H81.947V4.27054H84.3364V13.0269H81.947V9.41851H78.6113V13.0269H76.2219V4.27054H78.6113Z" fill="#17162D"/>
<path d="M88.2351 13.0269H85.6532L88.0106 9.56284C87.5615 9.38109 87.1606 9.08707 86.8078 8.68079C86.4657 8.26382 86.2947 7.69717 86.2947 6.98084C86.2947 6.10414 86.6261 5.43592 87.2889 4.97618C87.9518 4.50576 88.8017 4.27054 89.8388 4.27054H93.9121V13.0269H91.5226V9.77132H90.2076L88.2351 13.0269ZM88.636 6.99688C88.636 7.36039 88.7803 7.64906 89.069 7.86289C89.3577 8.06603 89.7318 8.1676 90.1916 8.1676H91.5226V5.95446H89.8869C89.4592 5.95446 89.1438 6.06137 88.9407 6.2752C88.7376 6.47834 88.636 6.7189 88.636 6.99688Z" fill="#17162D"/>
<path d="M104.861 0.501785C104.808 1.05774 104.653 1.54955 104.396 1.97721C104.14 2.39418 103.739 2.72027 103.194 2.95549C102.648 3.1907 101.916 3.30831 100.997 3.30831C100.056 3.30831 99.3181 3.19605 98.7836 2.97152C98.2597 2.73631 97.8855 2.41022 97.661 1.99325C97.4365 1.57628 97.3029 1.07913 97.2601 0.501785H99.393C99.4464 1.08982 99.5961 1.48006 99.842 1.67251C100.088 1.86495 100.489 1.96118 101.045 1.96118C101.504 1.96118 101.879 1.85961 102.167 1.65647C102.467 1.44264 102.643 1.05774 102.697 0.501785H104.861ZM98.7836 7.73459C98.7836 7.91635 98.7729 8.14087 98.7515 8.40816C98.7408 8.67545 98.7248 8.94808 98.7034 9.22606C98.6927 9.50404 98.6767 9.74994 98.6553 9.96377C98.6339 10.1776 98.6179 10.3273 98.6072 10.4128L102.648 4.27054H105.519V13.0269H103.21V9.53077C103.21 9.2421 103.22 8.9267 103.242 8.58457C103.263 8.23175 103.285 7.90566 103.306 7.60629C103.338 7.29624 103.359 7.06103 103.37 6.90065L99.3449 13.0269H96.4743V4.27054H98.7836V7.73459Z" fill="#17162D"/>
<path d="M115.839 13.1873C114.535 13.1873 113.525 12.8291 112.808 12.1128C112.103 11.3857 111.75 10.2471 111.75 8.69683C111.75 7.62768 111.932 6.75632 112.295 6.08275C112.659 5.40919 113.161 4.91203 113.803 4.59129C114.455 4.27054 115.203 4.11017 116.048 4.11017C116.646 4.11017 117.165 4.16897 117.603 4.28658C118.052 4.40419 118.442 4.54318 118.774 4.70355L118.068 6.54783C117.694 6.39815 117.341 6.2752 117.01 6.17898C116.689 6.08275 116.368 6.03464 116.048 6.03464C114.807 6.03464 114.187 6.91669 114.187 8.68079C114.187 9.55749 114.348 10.2043 114.668 10.6213C115 11.0383 115.46 11.2468 116.048 11.2468C116.55 11.2468 116.994 11.1826 117.379 11.0543C117.764 10.9153 118.138 10.7282 118.501 10.493V12.5297C118.138 12.7649 117.753 12.9307 117.347 13.0269C116.951 13.1338 116.449 13.1873 115.839 13.1873Z" fill="#17162D"/>
<path d="M131.614 4.27054V13.0269H129.385V8.7289C129.385 8.30124 129.39 7.88427 129.401 7.478C129.422 7.07172 129.449 6.69752 129.481 6.35539H129.433L127.011 13.0269H125.215L122.762 6.33935H122.698C122.74 6.69217 122.767 7.07172 122.778 7.478C122.799 7.87358 122.81 8.31193 122.81 8.79305V13.0269H120.581V4.27054H123.964L126.145 10.2043L128.359 4.27054H131.614Z" fill="#17162D"/>
<path d="M137.784 4.11017C138.992 4.11017 139.949 4.45764 140.655 5.15259C141.36 5.83685 141.713 6.81512 141.713 8.08741V9.2421H136.068C136.09 9.91566 136.287 10.4449 136.662 10.8298C137.046 11.2147 137.576 11.4071 138.249 11.4071C138.816 11.4071 139.329 11.3537 139.789 11.2468C140.248 11.1291 140.724 10.9527 141.216 10.7175V12.5618C140.788 12.7756 140.334 12.9307 139.853 13.0269C139.382 13.1338 138.81 13.1873 138.137 13.1873C137.26 13.1873 136.485 13.0269 135.812 12.7061C135.138 12.3747 134.609 11.8776 134.224 11.2147C133.839 10.5518 133.647 9.71787 133.647 8.71287C133.647 7.68648 133.818 6.83651 134.16 6.16294C134.513 5.47868 134.999 4.96549 135.619 4.62336C136.239 4.28123 136.961 4.11017 137.784 4.11017ZM137.8 5.81012C137.34 5.81012 136.956 5.9598 136.645 6.25916C136.346 6.55853 136.17 7.02361 136.116 7.65441H139.468C139.457 7.11983 139.318 6.68148 139.051 6.33935C138.784 5.98653 138.367 5.81012 137.8 5.81012Z" fill="#17162D"/>
<path d="M151.557 13.0269H149.167V6.06672H146.97C146.831 7.77736 146.644 9.15656 146.409 10.2043C146.184 11.2414 145.869 12.0005 145.463 12.4816C145.056 12.952 144.511 13.1873 143.827 13.1873C143.271 13.1873 142.817 13.1017 142.464 12.9307V11.0222C142.71 11.1291 142.966 11.1826 143.234 11.1826C143.426 11.1826 143.602 11.0864 143.763 10.8939C143.923 10.7015 144.073 10.354 144.212 9.85151C144.362 9.34901 144.495 8.64872 144.613 7.75063C144.73 6.84185 144.837 5.68182 144.934 4.27054H151.557V13.0269Z" fill="#17162D"/>
<path d="M162.069 8.63268C162.069 10.0867 161.684 11.2093 160.915 12.0005C160.155 12.7917 159.118 13.1873 157.803 13.1873C156.991 13.1873 156.264 13.0109 155.622 12.658C154.992 12.3052 154.495 11.792 154.131 11.1185C153.768 10.4342 153.586 9.60561 153.586 8.63268C153.586 7.17863 153.965 6.06137 154.724 5.28089C155.483 4.50041 156.526 4.11017 157.852 4.11017C158.675 4.11017 159.402 4.28658 160.033 4.6394C160.663 4.99222 161.16 5.50541 161.524 6.17898C161.887 6.84185 162.069 7.65975 162.069 8.63268ZM156.023 8.63268C156.023 9.49869 156.162 10.1562 156.44 10.6053C156.729 11.0436 157.194 11.2628 157.836 11.2628C158.466 11.2628 158.921 11.0436 159.199 10.6053C159.487 10.1562 159.632 9.49869 159.632 8.63268C159.632 7.76667 159.487 7.11983 159.199 6.69217C158.921 6.25382 158.461 6.03464 157.819 6.03464C157.189 6.03464 156.729 6.25382 156.44 6.69217C156.162 7.11983 156.023 7.76667 156.023 8.63268Z" fill="#17162D"/>
<path d="M166.968 1.7272L166.757 9.30731H164.666L164.462 1.7272H166.968ZM164.29 11.9306C164.29 11.513 164.415 11.1867 164.666 10.9518C164.922 10.7116 165.272 10.5915 165.715 10.5915C166.159 10.5915 166.506 10.7116 166.757 10.9518C167.013 11.1867 167.14 11.513 167.14 11.9306C167.14 12.343 167.013 12.6693 166.757 12.9094C166.506 13.1444 166.159 13.2618 165.715 13.2618C165.272 13.2618 164.922 13.1444 164.666 12.9094C164.415 12.6693 164.29 12.343 164.29 11.9306Z" fill="#17162D"/>
<defs>
<linearGradient id="paint0_linear_18875_55946" x1="0" y1="31.2407" x2="40.8015" y2="31.2407" gradientUnits="userSpaceOnUse">
<stop stop-color="#71B95D"/>
<stop offset="1" stop-color="#287ABF"/>
</linearGradient>
</defs>
</svg>