<?xml version="1.0" encoding="UTF-8"?>
<svg width="10px" height="18px" viewBox="0 0 10 18" version="1.1" xmlns="http://www.w3.org/2000/svg" xmlns:xlink="http://www.w3.org/1999/xlink">
    <!-- Generator: Sketch 53.2 (72643) - https://sketchapp.com -->
    <title>Shape</title>
    <desc>Created with Sketch.</desc>
    <g id="Desktop" stroke="none" stroke-width="1" fill="none" fill-rule="evenodd">
        <g id="Index" transform="translate(-742.000000, -458.000000)" fill="#8C9CAA" fill-rule="nonzero">
            <g id="Live" transform="translate(601.000000, 381.000000)">
                <g id="1" transform="translate(20.000000, 60.000000)">
                    <path d="M130,27 C129.447715,27 129,26.5522847 129,26 C129,25.4477153 129.447715,25 130,25 C130.552285,25 131,25.4477153 131,26 C131,26.5522847 130.552285,27 130,27 Z M126,31 C125.447715,31 125,30.5522847 125,30 C125,29.4477153 125.447715,29 126,29 C126.552285,29 127,29.4477153 127,30 C127,30.5522847 126.552285,31 126,31 Z M122,31 C121.447715,31 121,30.5522847 121,30 C121,29.4477153 121.447715,29 122,29 C122.552285,29 123,29.4477153 123,30 C123,30.5522847 122.552285,31 122,31 Z M122,35 C121.447715,35 121,34.5522847 121,34 C121,33.4477153 121.447715,33 122,33 C122.552285,33 123,33.4477153 123,34 C123,34.5522847 122.552285,35 122,35 Z M126,27 C125.447715,27 125,26.5522847 125,26 C125,25.4477153 125.447715,25 126,25 C126.552285,25 127,25.4477153 127,26 C127,26.5522847 126.552285,27 126,27 Z M122,27 C121.447715,27 121,26.5522847 121,26 C121,25.4477153 121.447715,25 122,25 C122.552285,25 123,25.4477153 123,26 C123,26.5522847 122.552285,27 122,27 Z M126,23 C125.447715,23 125,22.5522847 125,22 C125,21.4477153 125.447715,21 126,21 C126.552285,21 127,21.4477153 127,22 C127,22.5522847 126.552285,23 126,23 Z M122,23 C121.447715,23 121,22.5522847 121,22 C121,21.4477153 121.447715,21 122,21 C122.552285,21 123,21.4477153 123,22 C123,22.5522847 122.552285,23 122,23 Z M122,19 C121.447715,19 121,18.5522847 121,18 C121,17.4477153 121.447715,17 122,17 C122.552285,17 123,17.4477153 123,18 C123,18.5522847 122.552285,19 122,19 Z" id="Shape"/>
                </g>
            </g>
        </g>
    </g>
</svg>