<svg xmlns="http://www.w3.org/2000/svg" width="23" height="20" viewBox="0 0 23 20">
    <g fill="none" fill-rule="evenodd">
        <path fill="#FCFDFE" d="M6.239 11.267c-1.104-.334-2.22-.68-3.323-1.014l-1.622-.5C1.092 9.684.9 9.617.731 9.495c-.315-.234-.338-.524-.067-.813.18-.2.405-.334.653-.435l1.96-.768c4.505-1.716 9.01-3.442 13.526-5.158 1.43-.545 2.85-1.091 4.28-1.637.191-.078.394-.122.608-.09a.952.952 0 0 1 .8.859c.022.245.011.49-.034.735l-1.656 7.697c-.45 2.116-.912 4.233-1.362 6.36l-.304 1.437a2.344 2.344 0 0 1-.226.668c-.225.413-.585.569-1.047.48a1.864 1.864 0 0 1-.755-.346c-1.554-1.136-3.108-2.283-4.674-3.42-.067-.055-.146-.1-.214-.144-.27-.078-.462-.279-.676-.435-.743-.534-1.486-1.091-2.23-1.626a.968.968 0 0 1-.157-.145c-.068-.111 0-.178.067-.245 1.014-.891 2.016-1.804 3.03-2.696.732-.657 1.475-1.314 2.207-1.971.733-.657 1.465-1.303 2.197-1.95.574-.512 1.149-1.013 1.712-1.526l.135-.133c.034-.045.079-.09.056-.145-.022-.067-.09-.067-.146-.067-.203-.022-.372.056-.54.156-.62.368-1.217.758-1.825 1.136-1.848 1.148-3.706 2.306-5.553 3.453-1.273.791-2.545 1.582-3.818 2.384-.146.078-.248.223-.44.156z"/>
        <path fill="#CCD9E9" d="M6.239 11.267c.304-.122.563-.323.844-.49.811-.501 1.622-1.003 2.433-1.515.575-.356 1.138-.724 1.712-1.08.946-.59 1.903-1.181 2.86-1.772.665-.412 1.33-.835 2.006-1.258l1.757-1.103c.191-.111.382-.178.619-.156.068.011.135.011.158.078.033.067.01.134-.045.2-.136.134-.26.279-.417.402-.282.222-.53.479-.8.712-.439.368-.844.769-1.284 1.137-.18.156-.349.323-.529.479-.26.211-.507.467-.755.69-.383.346-.777.68-1.16 1.014-.169.156-.349.312-.507.468-.416.39-.855.757-1.272 1.147-.507.457-1.025.902-1.52 1.37-.361.334-.744.646-1.116.97-.056.044-.056.088-.022.144-.08 1.259-.17 2.517-.248 3.776-.023.334-.068.657-.056.991 0 .1 0 .19-.08.268-.067.022-.146.022-.213.022-.203-.011-.35-.111-.406-.3-.056-.201-.123-.39-.18-.591-.552-1.793-1.104-3.598-1.655-5.391a1.448 1.448 0 0 1-.124-.212z"/>
        <path fill="#B1C8DB" d="M8.784 17.728c-.034-.435.045-.87.056-1.292.023-.468.068-.936.09-1.404l.102-1.426c.011-.245.034-.49.034-.724 0-.078.022-.133.101-.178.912.668 1.825 1.326 2.726 1.994.1.078.214.134.292.234-.844.813-1.7 1.626-2.545 2.44-.225.222-.496.4-.856.356z"/>
    </g>
</svg>